<svg width="305" height="549" viewBox="0 0 305 549" fill="none" xmlns="http://www.w3.org/2000/svg">
<path fill-rule="evenodd" clip-rule="evenodd" d="M59.6369 368.171C39.6149 402.851 -11.1683 412.62 -45.7749 392.64L-112.503 519.794C-8.68356 579.734 124.172 543.986 184.238 439.949L59.6369 368.171Z" fill="#2C343E" fill-opacity="0.6"/>
<path d="M184.238 439.949L59.6369 368.171L138.767 231.113L252.367 321.946L184.238 439.949Z" fill="#2C343E" fill-opacity="0.6"/>
<path d="M-45.7749 392.64L-112.503 519.794L-190.203 474.934L-98.37 362.182L-45.7749 392.64Z" fill="#2C343E" fill-opacity="0.6"/>
<path fill-rule="evenodd" clip-rule="evenodd" d="M60.7872 181.824C80.8093 147.145 119.271 133.106 153.877 153.086L231.506 30.2063C127.686 -29.7341 -4.74277 5.27391 -64.8088 109.311L60.7872 181.824Z" fill="#2C343E" fill-opacity="0.6"/>
<path d="M-64.8088 109.311L60.7872 181.824L-18.0358 318.35L-132.785 227.049L-64.8088 109.311Z" fill="#2C343E" fill-opacity="0.6"/>
<path d="M153.877 153.086L231.506 30.2063L304.192 72.1717L211.833 185.836L153.877 153.086Z" fill="#2C343E" fill-opacity="0.6"/>
</svg>
