<svg width="24" height="24" viewBox="0 0 24 24" fill="none" xmlns="http://www.w3.org/2000/svg">
<g clip-path="url(#clip0_899_4638)">
<path d="M3.27344 10.9093C3.27344 11.9121 3.47096 12.9051 3.85472 13.8316C4.23848 14.7581 4.80097 15.5999 5.51008 16.309C6.21918 17.0181 7.06101 17.5806 7.98749 17.9644C8.91398 18.3482 9.90698 18.5457 10.9098 18.5457C11.9126 18.5457 12.9056 18.3482 13.8321 17.9644C14.7586 17.5806 15.6004 17.0181 16.3095 16.309C17.0186 15.5999 17.5811 14.7581 17.9649 13.8316C18.3486 12.9051 18.5462 11.9121 18.5462 10.9093C18.5462 9.90649 18.3486 8.91349 17.9649 7.987C17.5811 7.06052 17.0186 6.21869 16.3095 5.50959C15.6004 4.80049 14.7586 4.238 13.8321 3.85423C12.9056 3.47047 11.9126 3.27295 10.9098 3.27295C9.90698 3.27295 8.91398 3.47047 7.98749 3.85423C7.06101 4.238 6.21918 4.80049 5.51008 5.50959C4.80097 6.21869 4.23848 7.06052 3.85472 7.987C3.47096 8.91349 3.27344 9.90649 3.27344 10.9093Z" stroke="white" stroke-width="1.5" stroke-linecap="round"/>
<path d="M20.4759 19.9265L16.6152 16.0732" stroke="white" stroke-width="1.5" stroke-linecap="round" stroke-linejoin="round"/>
</g>
<defs>
<clipPath id="clip0_899_4638">
<rect width="24" height="24" fill="white"/>
</clipPath>
</defs>
</svg>
